<?xml version="1.0" encoding="UTF-8"?>
<svg width="183px" height="42px" viewBox="0 0 183 42" version="1.1" xmlns="http://www.w3.org/2000/svg" xmlns:xlink="http://www.w3.org/1999/xlink">
    <!-- Generator: Sketch 58 (84663) - https://sketch.com -->
    <title>Group Copy</title>
    <desc>Created with Sketch.</desc>
    <g id="Page-1" stroke="none" stroke-width="1" fill="none" fill-rule="evenodd">
        <g id="Sign-in-FB/G-Copy-3" transform="translate(-96.000000, -243.000000)" fill="#064A82" fill-rule="nonzero">
            <g id="Group-Copy" transform="translate(96.500000, 243.000000)">
                <path d="M16.7718982,4.58853818 C20.7802964,4.58853818 24.3227531,5.3532869 27.3993745,6.88280727 C30.475996,8.41232765 32.8669345,10.5659304 34.5722618,13.34368 C36.2775891,16.1214296 37.13024,19.3562288 37.13024,23.0481745 C37.13024,26.7401203 36.2775891,29.9749194 34.5722618,32.7526691 C32.8669345,35.5304187 30.475996,37.6840214 27.3993745,39.2135418 C24.3227531,40.7430622 20.7802964,41.5078109 16.7718982,41.5078109 L1.13686838e-13,41.5078109 L1.13686838e-13,4.58853818 L16.7718982,4.58853818 Z M16.3499636,11.6032 L8.54417455,11.6032 L8.54417455,34.4931491 L16.3499636,34.4931491 C20.0419094,34.4931491 22.9866314,33.4646939 25.1842182,31.4077527 C27.3818049,29.3508115 28.4805818,26.5643133 28.4805818,23.0481745 C28.4805818,19.5320358 27.3818049,16.7455376 25.1842182,14.6885964 C22.9866314,12.6316552 20.0419094,11.6032 16.3499636,11.6032 Z" id="Combined-Shape"></path>
                <path d="M56.77728,12.7107782 C59.4847069,12.7107782 61.9459671,13.2821422 64.1611345,14.4248873 C66.376302,15.5676324 68.1431352,17.2201928 69.4616873,19.3826182 C70.7802393,21.5450435 71.4395055,24.1029961 71.4395055,27.0565527 L50.4482618,31.1176727 C51.0460054,32.5241282 51.9865584,33.5789541 53.2699491,34.2821818 C54.5533398,34.9854096 56.1267883,35.3370182 57.9903418,35.3370182 C59.4671201,35.3370182 60.7768622,35.1172628 61.9196073,34.6777455 C63.0623524,34.2382281 64.1259684,33.5438011 65.1104873,32.5944436 L69.4880582,37.3412073 C66.8157927,40.400248 62.9129372,41.9297455 57.7793745,41.9297455 C54.5796882,41.9297455 51.749239,41.3056402 49.2879418,40.0574109 C46.8266447,38.8091816 44.9279582,37.0775093 43.5918255,34.8623418 C42.2556927,32.6471744 41.5876364,30.1331729 41.5876364,27.3202618 C41.5876364,24.5425122 42.2469025,22.0373009 43.5654545,19.8045527 C44.8840066,17.5718046 46.6947909,15.831342 48.9978618,14.5831127 C51.3009327,13.3348835 53.8940462,12.7107782 56.77728,12.7107782 Z M56.77728,18.9343127 C54.7027581,18.9343127 53.0150368,19.6023691 51.7140655,20.9385018 C50.4130941,22.2746346 49.7274573,24.1205797 49.6571345,26.4763927 L63.4754909,23.78656 C63.0887156,22.3097817 62.2975963,21.1318929 61.1021091,20.2528582 C59.9066219,19.3738235 58.4650266,18.9343127 56.77728,18.9343127 Z" id="Combined-Shape"></path>
                <polygon id="Path" points="58.9396945 1.89870545 67.80032 1.89870545 58.2540509 9.49352727 51.8195491 9.49352727"></polygon>
                <path d="M85.9178473,2.37338182 L85.9178473,16.1389964 C87.9923692,13.8535061 90.8403989,12.7107782 94.4620218,12.7107782 C97.0991259,12.7107782 99.4988546,13.317303 101.66128,14.5303709 C103.823705,15.7434388 105.520217,17.4487405 106.750865,19.6463273 C107.981514,21.843914 108.596829,24.4018666 108.596829,27.3202618 C108.596829,30.238657 107.981514,32.7966096 106.750865,34.9941964 C105.520217,37.1917831 103.823705,38.8970848 101.66128,40.1101527 C99.4988546,41.3232206 97.0991259,41.9297455 94.4620218,41.9297455 C90.5591078,41.9297455 87.588015,40.6991153 85.5486545,38.2378182 L85.5486545,41.5078109 L77.6901236,41.5078109 L77.6901236,2.37338182 L85.9178473,2.37338182 Z M93.0379927,19.4617309 C90.9283095,19.4617309 89.1966371,20.1737383 87.8429236,21.5977745 C86.4892102,23.0218108 85.8123636,24.9292874 85.8123636,27.3202618 C85.8123636,29.7112362 86.4892102,31.6187129 87.8429236,33.0427491 C89.1966371,34.4667853 90.9283095,35.1787927 93.0379927,35.1787927 C95.147676,35.1787927 96.8793484,34.4667853 98.2330618,33.0427491 C99.5867753,31.6187129 100.263622,29.7112362 100.263622,27.3202618 C100.263622,24.9292874 99.5867753,23.0218108 98.2330618,21.5977745 C96.8793484,20.1737383 95.147676,19.4617309 93.0379927,19.4617309 Z" id="Combined-Shape"></path>
                <polygon id="Path" points="114.794705 13.1327127 123.022429 13.1327127 123.022429 41.5078109 114.794705 41.5078109"></polygon>
                <path d="M118.908567,9.17707636 C117.396628,9.17707636 116.165997,8.73756561 115.21664,7.85853091 C114.267283,6.97949621 113.792611,5.88950954 113.792611,4.58853818 C113.792611,3.28756683 114.267283,2.19758015 115.21664,1.31854545 C116.165997,0.439510756 117.396628,0 118.908567,0 C120.420507,0 121.651137,0.421930326 122.600495,1.26580364 C123.549852,2.10967695 124.024524,3.16450276 124.024524,4.43031273 C124.024524,5.80160686 123.549852,6.93554461 122.600495,7.83216 C121.651137,8.72877539 120.420507,9.17707636 118.908567,9.17707636 Z" id="Path"></path>
                <path d="M148.471069,40.1365236 C147.662357,40.7342672 146.669063,41.1825682 145.491156,41.48144 C144.31325,41.7803118 143.09141,41.9297455 141.8256,41.9297455 C138.414945,41.9297455 135.795461,41.0683044 133.967069,39.3453964 C132.138677,37.6224884 131.224495,35.0909064 131.224495,31.7505745 L131.224495,6.85643636 L139.452218,6.85643636 L139.452218,13.7656145 L146.46688,13.7656145 L146.46688,20.0946327 L139.452218,20.0946327 L139.452218,31.6450909 C139.452218,32.8405781 139.751085,33.7635507 140.348829,34.4140364 C140.946573,35.064522 141.808014,35.38976 142.933178,35.38976 C144.198988,35.38976 145.324136,35.0381514 146.308655,34.3349236 L148.471069,40.1365236 Z" id="Path"></path>
                <path d="M165.006342,12.7107782 C168.627965,12.7107782 171.458414,13.8535061 173.497775,16.1389964 L173.497775,13.1327127 L181.725498,13.1327127 L181.725498,41.5078109 L173.866967,41.5078109 L173.866967,38.2378182 C171.827607,40.6991153 168.874094,41.9297455 165.006342,41.9297455 C162.334076,41.9297455 159.916767,41.3320108 157.754342,40.1365236 C155.591916,38.9410364 153.895405,37.2357347 152.664756,35.0205673 C151.434108,32.8053998 150.818793,30.238657 150.818793,27.3202618 C150.818793,24.4018666 151.434108,21.8351238 152.664756,19.6199564 C153.895405,17.4047889 155.591916,15.6994872 157.754342,14.504 C159.916767,13.3085128 162.334076,12.7107782 165.006342,12.7107782 Z M166.430371,19.4617309 C164.320688,19.4617309 162.580225,20.1737383 161.208931,21.5977745 C159.837637,23.0218108 159.152,24.9292874 159.152,27.3202618 C159.152,29.7112362 159.837637,31.6187129 161.208931,33.0427491 C162.580225,34.4667853 164.320688,35.1787927 166.430371,35.1787927 C168.504893,35.1787927 170.227775,34.4667853 171.599069,33.0427491 C172.970363,31.6187129 173.656,29.7112362 173.656,27.3202618 C173.656,24.9292874 172.970363,23.0218108 171.599069,21.5977745 C170.227775,20.1737383 168.504893,19.4617309 166.430371,19.4617309 Z" id="Combined-Shape"></path>
            </g>
        </g>
    </g>
</svg>